<?xml version="1.0" encoding="utf-8"?>
<!-- Generator: Adobe Illustrator 19.0.0, SVG Export Plug-In . SVG Version: 6.00 Build 0)  -->
<svg version="1.1" id="Layer_1" xmlns="http://www.w3.org/2000/svg" xmlns:xlink="http://www.w3.org/1999/xlink" x="0px" y="0px"
	 viewBox="-469 469.3 479 479" style="enable-background:new -469 469.3 479 479;" xml:space="preserve">
<style type="text/css">
	.st0{fill:#00758d;}
</style>
<g>
	<path class="st0" d="M9.8,739.5l-5.4-55.6c-2.1-21.9-21.7-38-43.6-35.9l-23.8,2.3l-0.8-8l-0.4-4c-1.8-18.8-15.5-34.4-33.9-38.6
		c-18.5-4.2-37.5,4-47.3,20.2c-8-2.4-16.7-0.3-22.8,5.5c-9.2-10.2-24-13.4-36.6-7.8c-12.6,5.6-20.2,18.6-18.8,32.3l0.3,3
		c-9.4,12.9-7.7,30.8,4.1,41.6l13.2,134.9l-5.1,6.2c-1.3,1.6-2,3.7-1.8,5.8l2.3,23.9c0.4,4.1,3.8,7.2,7.9,7.2c0.3,0,0.5,0,0.8,0
		L-43,857c2.1-0.2,4.1-1.2,5.4-2.9c1.3-1.6,2-3.7,1.8-5.8l-2.3-23.8c-0.2-2.1-1.2-4.1-2.9-5.4l-6.2-5.1l-2.8-28.4l23.8-2.3
		C-4.1,780.9,11.9,761.4,9.8,739.5z M-79,651.9l1.6,15.9l-47.7,4.7l-1.6-15.9L-79,651.9z M-110.7,614.8c13.8-1.3,26.5,7.7,29.9,21.2
		l-47.4,4.6c-0.4-4.1-1.9-8-4.3-11.3C-128.1,621.2-119.9,615.8-110.7,614.8z M-203.8,688.1l-3.9-39.7c-0.9-8.8,5.6-16.6,14.3-17.5
		c8.8-0.9,16.6,5.6,17.5,14.3c0.4,4.4,4.4,7.6,8.7,7.1c4.4-0.4,7.6-4.4,7.1-8.7c-0.4-4.4,2.8-8.3,7.1-8.7c4.4-0.4,8.3,2.8,8.7,7.1
		l5.4,55.6c0.4,4.4-2.8,8.3-7.2,8.7s-8.3-2.8-8.7-7.2s-4.4-7.6-8.8-7.2s-7.6,4.4-7.2,8.8l2.3,23.8c0.9,8.8-5.6,16.6-14.3,17.5
		c-8.8,0.9-16.6-5.6-17.5-14.3L-203.8,688.1z M-184.1,758.3c1.1,0,2.1,0,3.2-0.1c17.5-1.8,30.4-17.4,28.7-34.9l-0.1-1.4
		c2.6,0.7,5.4,1,8.1,0.7c13.2-1.3,22.8-13,21.5-26.2l-0.8-8l47.7-4.7l12.4,127.2l-31.8,3.1l-3.1-31.8l-15.9,1.6l3.1,31.8l-15.9,1.6
		l-3.1-31.8L-146,787l3.1,31.8l-15.9,1.6l-3.1-31.8l-15.9,1.6l3.1,31.8l-15.9,1.5l-6.6-68C-193.2,757.4-188.7,758.3-184.1,758.3z
		 M-195.5,855.8l-1.2-12.6l3-3.6l136.5-13.3l3.6,3l1.2,12.6L-195.5,855.8z M-58.4,698l15.9-1.5l3.9,39.7l-15.9,1.5L-58.4,698z
		 M-51.4,769.5l-1.6-15.9l23.9-2.3c2.1-0.2,4.1-1.2,5.4-2.9c1.3-1.6,2-3.7,1.8-5.8l-5.4-55.6c-0.2-2.1-1.2-4.1-2.9-5.4
		c-1.6-1.3-3.7-2-5.8-1.8l-24,2.3l-1.5-15.2l-0.1-0.7l23.8-2.3c13.2-1.2,24.9,8.4,26.2,21.5l5.4,55.6c1.3,13.2-8.3,24.9-21.5,26.2
		L-51.4,769.5z"/>
	<path class="st0" d="M-468.8,739.5c-2.1,22,13.9,41.5,35.9,43.6l23.8,2.3l-2.8,28.5l-6.2,5.1c-1.6,1.3-2.7,3.3-2.9,5.4l-2.3,23.8
		c-0.2,2.1,0.4,4.2,1.8,5.9c1.3,1.6,3.3,2.7,5.4,2.9l159,15.6c0.3,0,0.5,0,0.8,0c4.1,0,7.6-3.1,8-7.2l2.3-23.8
		c0.2-2.1-0.4-4.2-1.8-5.8l-5.1-6.2l9.8-100l3.4-34.8c11.7-10.8,13.5-28.7,4.1-41.6l0.3-3c1.3-12.9-5.4-25.2-16.7-31.3
		c-11.4-6.1-25.3-4.7-35.3,3.5c-1.2,1-2.3,2.1-3.3,3.3c-6.1-5.7-14.8-7.8-22.8-5.5c-9.7-16.2-28.8-24.4-47.3-20.2
		s-32.2,19.7-34,38.6l-0.4,4l-0.8,8l-23.9-2.3c-21.9-2.1-41.4,13.9-43.6,35.8L-468.8,739.5z M-314.9,642.2c0.4-4.4,4.4-7.6,8.7-7.1
		c4.4,0.4,7.6,4.4,7.1,8.7c-0.4,4.4,2.8,8.3,7.2,8.8s8.3-2.8,8.8-7.2c0.4-4.2,2.5-8.1,5.8-10.8s7.5-3.9,11.7-3.6
		c4.2,0.4,8.1,2.5,10.8,5.7c2.7,3.3,4,7.5,3.6,11.7l-0.8,7.9l-7,71.6c-0.4,4.2-2.5,8.1-5.7,10.8c-3.3,2.7-7.5,4-11.7,3.6
		s-8.1-2.5-10.8-5.7c-2.7-3.3-4-7.5-3.6-11.7l2.3-23.8c0.4-4.4-2.8-8.3-7.1-8.7c-4.4-0.4-8.3,2.8-8.7,7.1c-0.5,4.4-4.4,7.6-8.7,7.2
		c-2.1-0.2-4.1-1.2-5.4-2.9s-2-3.7-1.8-5.9L-314.9,642.2z M-368.8,621.1c6.4-5.3,14.9-7.4,23.1-5.8c8.2,1.6,15.2,6.7,19.2,14.1
		c-2.4,3.3-3.8,7.3-4.3,11.3l-47.4-4.6C-376.7,630.1-373.4,624.9-368.8,621.1z M-380,651.9l24.9,2.4l22.8,2.2l-1.6,15.9l-47.7-4.7
		L-380,651.9z M-383.1,683.7l47.7,4.7l-0.8,8c-1.3,13.2,8.3,24.9,21.5,26.2c2.7,0.3,5.5,0.1,8.1-0.7l-0.1,1.4
		c-1.7,17.6,11.1,33.2,28.7,34.9c1,0.1,2.1,0.2,3.1,0.2c4.6,0,9.1-1.1,13.2-3l-6.7,68l-15.9-1.5l3.1-31.8l-15.9-1.6l-3.1,31.8
		l-15.9-1.6l3.1-31.8l-15.9-1.6l-3.1,31.8l-15.9-1.6l3.1-31.8l-15.9-1.6l-3.1,31.9l-31.8-3.1L-383.1,683.7z M-265.2,839.6l3,3.6
		l-1.2,12.6l-143.1-14l1.2-12.6l3.6-3L-265.2,839.6z M-420.3,736.2l3.9-39.7l15.9,1.5l-3.9,39.7L-420.3,736.2z M-452.9,741l5.4-55.6
		c1.2-12.2,11.5-21.6,23.8-21.6c0.8,0,1.6,0,2.4,0.1l23.9,2.3l-0.8,8l-0.8,7.9l-23.8-2.4c-4.4-0.4-8.3,2.8-8.7,7.2l-5.4,55.6
		c-0.2,2.1,0.4,4.2,1.8,5.9c1.3,1.6,3.3,2.7,5.4,2.9l23.8,2.3l-0.5,5.5l-1,10.4l-23.8-2.3C-444.6,765.9-454.2,754.2-452.9,741z"/>
	<path class="st0" d="M-237.6,545.1h16v16h-16V545.1z"/>
	<path class="st0" d="M-205.6,569.1h16v16h-16V569.1z"/>
	<path class="st0" d="M-269.5,569.1h16v16h-16V569.1z"/>
	<path class="st0" d="M-237.6,593h16v16h-16V593z"/>
</g>
</svg>
