<?xml version="1.0" encoding="utf-8"?>
<!-- Generator: Adobe Illustrator 19.0.0, SVG Export Plug-In . SVG Version: 6.00 Build 0)  -->
<svg version="1.1" id="Layer_1" xmlns="http://www.w3.org/2000/svg" xmlns:xlink="http://www.w3.org/1999/xlink" x="0px" y="0px"
	 viewBox="-452 453.3 512 512" style="enable-background:new -452 453.3 512 512;" xml:space="preserve">
<style type="text/css">
	.st0{fill:#00758d;}
</style>
<path class="st0" d="M-42.4,837.4h25.6c9.4,0,17.1-7.6,17.1-17.1v-25.6c0-9.4-7.6-17.1-17.1-17.1h-25.6c-9.4,0-17.1,7.6-17.1,17.1
	v25.6C-59.4,829.7-51.8,837.4-42.4,837.4z M-42.4,794.7h25.6v25.6h-25.6V794.7z"/>
<path class="st0" d="M-221.5,777.6h-25.6c-9.4,0-17.1,7.6-17.1,17.1v25.6c0,9.4,7.6,17.1,17.1,17.1h25.6c9.4,0,17.1-7.6,17.1-17.1
	v-25.6C-204.5,785.3-212.1,777.6-221.5,777.6z M-247.1,820.3v-25.6h25.6v25.6H-247.1z"/>
<path class="st0" d="M-332.4,777.6H-358c-9.4,0-17.1,7.6-17.1,17.1v25.6c0,9.4,7.6,17.1,17.1,17.1h25.6c9.4,0,17.1-7.6,17.1-17.1
	v-25.6C-315.4,785.3-323,777.6-332.4,777.6z M-358,820.3v-25.6h25.6v25.6H-358z"/>
<path class="st0" d="M-387.9,581.4c20.1,0,39-9.5,51-25.6h47.1c14.1,0,25.6-11.5,25.6-25.6c0-4.7,3.8-8.5,8.5-8.5h68.3
	c14.1,0,25.6-11.5,25.6-25.6c0-14.1-11.5-25.6-25.6-25.6h-128c-8,0-15.5,3.8-20.3,10.1c-17.4-24.8-49.9-34-77.8-21.9
	c-27.8,12.1-43.4,42-37.2,71.8C-444.5,560.2-418.3,581.5-387.9,581.4z M-315.4,487.6h128c4.7,0,8.5,3.8,8.5,8.5
	c0,4.7-3.8,8.5-8.5,8.5h-68.3c-14.1,0-25.6,11.5-25.6,25.6c0,4.7-3.8,8.5-8.5,8.5h-93.8c-4.7,0-8.5-3.8-8.5-8.5
	c0-4.7,3.8-8.5,8.5-8.5h34.1c9.4,0,18-5.2,22.4-13.5c0.1-0.2,0.2-0.4,0.3-0.5c1.9-3.6,2.8-7.5,2.9-11.5
	C-323.9,491.4-320.1,487.6-315.4,487.6z M-387.9,470.5c20,0,37.8,12.8,44.2,31.8c-1.6,1.5-3.6,2.4-5.8,2.4h-34.1
	c-14.1,0-25.6,11.5-25.6,25.6c0,14.1,11.5,25.6,25.6,25.6h22.7c-16.6,11.6-38.7,11.3-55-0.7c-16.2-12.1-22.9-33.2-16.5-52.4
	C-426.1,483.4-408.1,470.5-387.9,470.5z"/>
<path class="st0" d="M51.5,948.3H34.4V752h7.7c5,0,9.6-2.9,11.7-7.5c2.1-4.6,1.3-9.9-2-13.7L-56.5,607.2c-2.7-3-6.1-5.4-9.9-6.8
	l-0.4-0.1c-2.9-1.1-5.9-1.7-9-1.8h-43.4v-34.1c0-9.4-7.6-17.1-17.1-17.1h-34.1c-9.4,0-17.1,7.6-17.1,17.1v34.1h-112.4
	c-6.8,0-13.3,2.7-18.1,7.5l-63.3,63.3l-34.1,34.1l-26.8,26.8c-3.7,3.7-4.8,9.2-2.8,14c2,4.8,6.7,7.9,11.8,7.9h6.8v147.3
	c-16,11.1-25.6,29.4-25.6,48.9c0.1,2.4,0.3,4.8,0.6,7.1c-0.1,0.5-0.2,0.9-0.3,1.4c0.1,2.7,1.5,5.2,3.8,6.7c0.3,0.2,0.6,0.4,0.9,0.6
	c0.5,0.3,1.1,0.5,1.7,0.7c0.6,0.2,1.1,0.3,1.7,0.3c0.3,0.1,0.6,0.1,0.9,0.2H51.5c4.7,0,8.5-3.8,8.5-8.5
	C60,952.1,56.2,948.3,51.5,948.3z M25.9,735h-194.5l14.9-17.1H17.3c0.1,0,0.2-0.1,0.3-0.1l15,17.1H25.9z M-371.6,683.8h225.1
	l-14.9,17.1h-227.2L-371.6,683.8z M-336.4,648.6c1.2,0.7,2.5,1,3.9,1.1h215.8l-14.9,17.1h-223L-336.4,648.6z M-68,620l11.1,12.6
	h-22.2L-68,620z M-50.9,649.7c2.4,0,4.8-1.1,6.3-3l17.6,20h-81.9l14.9-17.1H-50.9z M-123.8,683.8h107c1.3,0,2.6-0.4,3.8-1l15.8,18.1
	h-141.6L-123.8,683.8z M-170.3,564.3h34.1v34.1h-34.1V564.3z M-305.8,618c1.6-1.6,3.8-2.5,6-2.5h213l-14.9,17.1h-218.7L-305.8,618z
	 M-405.7,717.9h229.4l-14.9,17.1h-231.5L-405.7,717.9z M-434.8,948.3c0-17.3,10.5-32.9,26.5-39.5c16-6.6,34.4-2.8,46.6,9.6
	c7.9,7.9,12.3,18.7,12.2,29.9H-434.8z M-342.2,915.6c10.3-3.1,21.5-1.1,30.1,5.4c8.6,6.4,13.7,16.6,13.7,27.4h-34.1
	C-332.4,936.6-335.8,925.3-342.2,915.6z M-332.4,897.1c-7.6,0-15.1,1.7-22,5c-15.3-12.6-35.9-16.7-54.8-11V752h238.9v196.2h-110.9
	C-281.3,920-304.2,897.1-332.4,897.1z M-153.3,752H17.3v196.2h-51.2V880c0-18.8-15.3-34.1-34.1-34.1H-85
	c-18.8,0-34.1,15.3-34.1,34.1v68.3h-34.1V752z M-102.1,948.3V880c0-9.4,7.6-17.1,17.1-17.1H-68c9.4,0,17.1,7.6,17.1,17.1v68.3
	H-102.1z"/>
</svg>
