<?xml version="1.0" encoding="utf-8"?>
<!-- Generator: Adobe Illustrator 19.0.0, SVG Export Plug-In . SVG Version: 6.00 Build 0)  -->
<svg version="1.1" id="Capa_1" xmlns="http://www.w3.org/2000/svg" xmlns:xlink="http://www.w3.org/1999/xlink" x="0px" y="0px"
	 viewBox="-452 453.2 512.1 512.1" style="enable-background:new -452 453.2 512.1 512.1;" xml:space="preserve">
<style type="text/css">
	.st0{fill:#00758d;}
</style>
<g transform="translate(-1)">
	<g>
		<g>
			<path class="st0" d="M-323.3,490.4c-4.8-4.1-11.8-4-16.5,0.1l-34.3,30.7v-4c0-4.7-3.8-8.5-8.5-8.5c-4.7,0-8.5,3.8-8.5,8.5v19.3
				l-14.2,12.7c-3.5,3.2-3.7,8.5-0.6,12c3.1,3.5,8.5,3.8,12,0.7l62.6-56l62.6,56c2.3,2.1,5.5,2.8,8.4,1.8c2.9-0.9,5.1-3.4,5.7-6.4
				c0.6-3-0.4-6.1-2.7-8.1L-323.3,490.4z"/>
			<path class="st0" d="M-280.3,572.7c-4.7,0-8.5,3.8-8.5,8.5V641h-85.3v-59.7c0-4.7-3.8-8.5-8.5-8.5c-4.7,0-8.5,3.8-8.5,8.5v65.2
				c0.1,6.5,5.4,11.7,11.9,11.6h95.6c6.5,0.1,11.9-5.2,11.9-11.7v-65.1C-271.7,576.6-275.6,572.7-280.3,572.7z"/>
			<path class="st0" d="M-331.5,675.1c-33,0-59.7,26.7-59.7,59.7s26.7,59.7,59.7,59.7s59.7-26.7,59.7-59.7
				C-271.8,701.9-298.5,675.2-331.5,675.1z M-374.1,734.9c0-20.3,14.3-37.7,34.1-41.8v37l-31.6,18.9
				C-373.2,744.4-374.1,739.7-374.1,734.9z M-362.8,763.6l30-18l24.8,24.8C-325.4,782-348.7,779.1-362.8,763.6z M-295.9,758.4
				l-27-27v-38.3c13.9,2.8,25.5,12.4,30.9,25.5C-286.6,731.6-288.1,746.5-295.9,758.4z"/>
			<path class="st0" d="M9.9,606.9v-29.2c0-7.4-6-13.5-13.5-13.5h-24.3c-7.4,0-13.5,6-13.5,13.5v29.2h-17.1v-53.5
				c0-8.1-6.6-14.8-14.8-14.8h-21.7c-8.1,0-14.8,6.6-14.8,14.8v53.5h-17.1V513c0-9.4-7.6-17.1-17.1-17.1h-17.1
				c-9.4,0-17.1,7.6-17.1,17.1v93.9h-8.5c-4.7,0-8.5-3.8-8.5-8.5V495.9c0-4.7-3.8-8.5-8.5-8.5s-8.5,3.8-8.5,8.5v102.4
				c0,14.1,11.5,25.6,25.6,25.6H9.9c4.7,0,8.5-3.8,8.5-8.5C18.4,610.7,14.6,606.9,9.9,606.9z M-143.7,606.9h-17.1V513h17.1V606.9z
				 M-75.5,606.9h-17.1v-51.2h17.1V606.9z M-7.2,606.9h-17.1v-25.6h17.1L-7.2,606.9L-7.2,606.9z"/>
			<path class="st0" d="M9.9,777.5h-196.3c-4.7,0-8.5-3.8-8.5-8.5v-13.5l28.1-28.1c3.4-3.2,8.7-3.2,12.1,0l10,10
				c10,10,26.2,10,36.2,0l35.6-35.6c3.4-3.2,8.7-3.2,12.1,0l10,10c10,10,26.2,10,36.2,0l30.6-30.6c3.2-3.3,3.2-8.7-0.1-12
				c-3.3-3.3-8.6-3.3-12-0.1l-30.6,30.6c-3.3,3.3-8.7,3.3-12.1,0l-10-10c-10.1-9.7-26.1-9.7-36.2,0l-35.6,35.6
				c-3.3,3.3-8.7,3.3-12.1,0l-10-10c-10.1-9.7-26.1-9.7-36.2,0l-16,16v-64.7c0-4.7-3.8-8.5-8.5-8.5s-8.5,3.8-8.5,8.5V769
				c0,14.1,11.5,25.6,25.6,25.6H9.9c4.7,0,8.5-3.8,8.5-8.5C18.4,781.4,14.6,777.5,9.9,777.5z"/>
			<path class="st0" d="M61.1,849.7V500.6c1.2-24.8-17.9-45.9-42.7-47.3h-426.7c-24.8,1.4-43.9,22.5-42.7,47.3v349.1
				c-1.2,24.8,17.9,45.9,42.7,47.3h136.5v17.1h-34.1c-18.9,0-34.1,15.3-34.1,34.1v8.5c0,4.7,3.8,8.5,8.5,8.5h273.1
				c4.7,0,8.5-3.8,8.5-8.5v-8.5c0-18.9-15.3-34.1-34.1-34.1h-34.1V897H18.4C43.2,895.6,62.2,874.5,61.1,849.7z M-84,931.1
				c9.4,0,17.1,7.6,17.1,17.1h-256c0-9.4,7.6-17.1,17.1-17.1H-84z M-254.7,914.1V897h119.5v17.1H-254.7z M18.4,879.9h-426.7
				c-15.4-1.4-26.8-14.9-25.6-30.3v-20.9H44v20.9C45.1,865.1,33.7,878.5,18.4,879.9z M44,500.6v311.1h-477.9V500.6
				c-1.2-15.4,10.2-28.8,25.6-30.3H18.4C33.7,471.7,45.1,485.2,44,500.6z"/>
		</g>
	</g>
</g>
</svg>
