<?xml version="1.0" encoding="utf-8"?>
<!-- Generator: Adobe Illustrator 19.0.0, SVG Export Plug-In . SVG Version: 6.00 Build 0)  -->
<svg version="1.1" id="Layer_1" xmlns="http://www.w3.org/2000/svg" xmlns:xlink="http://www.w3.org/1999/xlink" x="0px" y="0px"
	 viewBox="-241 242.3 934 934" style="enable-background:new -241 242.3 934 934;" xml:space="preserve">
<style type="text/css">
	.st0{fill:#00758d;}
</style>
<g id="surface1">
	<path class="st0" d="M226,803.7c120.4,0,217.9-97.6,217.9-217.9c0-120.4-97.6-217.9-217.9-217.9c-120.4,0-217.9,97.6-217.9,217.9
		C8.2,706.1,105.7,803.6,226,803.7z M226,399c103.2,0,186.8,83.6,186.8,186.8c0,103.2-83.6,186.8-186.8,186.8
		c-103.2,0-186.8-83.6-186.8-186.8C39.3,482.6,122.9,399.1,226,399z"/>
	<path class="st0" d="M658.9,895.3c-21.2-13.5-47.9-15.1-70.6-4.3l-180,85.3c8.1-21.5,5.1-45.6-8-64.5
		c-13.1-18.9-34.6-30.2-57.6-30.2H154.5c-69.8-65.3-173.8-78.3-257.5-32.2l-1.9,1H-241v31.1h124.5v264.6H-241v31.1h547.4
		c52,0,103.1-13.7,148.2-39.8l201.8-116.8c22.2-12.8,36.1-36.4,36.6-62C693.5,933,680.6,909,658.9,895.3z M640.8,993.7L439,1110.5
		c-40.3,23.3-86,35.6-132.6,35.6H-85.3v-271c73.4-38.9,163.6-25.6,222.5,33c2.9,2.9,6.9,4.6,11,4.6h194.6
		c21.5,0,38.9,17.4,38.9,38.9c0,21.5-17.4,38.9-38.9,38.9H148.2c-8.6,0-15.6,7-15.6,15.6c0,8.6,7,15.6,15.6,15.6h233.5
		c2.3,0,4.6-0.6,6.7-1.6l213.3-101c20.4-9.7,44.9-1.6,55.4,18.5C667.5,957.5,660.4,982.3,640.8,993.7L640.8,993.7z"/>
	<path class="st0" d="M101.5,585.8c0.1-68.7,55.8-124.5,124.5-124.5v-31.1c-85.9,0.1-155.6,69.7-155.7,155.7H101.5z"/>
	<path class="st0" d="M226,741.4c85.9-0.1,155.6-69.7,155.7-155.7h-31.1c-0.1,68.7-55.8,124.5-124.5,124.5V741.4z"/>
	<path class="st0" d="M-87.9,336.5c25.4,4.2,45.2,24.1,49.5,49.5c1.3,7.5,7.8,13,15.3,13c7.6,0,14.1-5.5,15.3-13
		c4.2-25.4,24.1-45.2,49.5-49.5c7.5-1.3,13-7.8,13-15.4c0-7.6-5.5-14.1-13-15.4c-25.4-4.2-45.2-24.1-49.5-49.5
		c-1.3-7.5-7.7-13-15.3-13c-7.6,0-14.1,5.5-15.3,13c-4.2,25.4-24.1,45.3-49.5,49.5c-7.5,1.3-13,7.8-13,15.4
		C-100.9,328.7-95.4,335.2-87.9,336.5z M-23.1,298.9c6.1,8.6,13.6,16.2,22.2,22.2c-8.6,6.1-16.2,13.6-22.2,22.2
		c-6.1-8.6-13.6-16.2-22.2-22.2C-36.7,315.1-29.1,307.5-23.1,298.9z"/>
	<path class="st0" d="M472.5,725.6c25.4,4.2,45.2,24.1,49.5,49.5c1.3,7.5,7.8,13,15.4,13c7.6,0,14.1-5.5,15.3-13
		c4.2-25.4,24.1-45.2,49.5-49.5c7.5-1.3,13-7.8,13-15.4c0-7.6-5.5-14.1-13-15.4c-25.4-4.2-45.2-24.1-49.5-49.5
		c-1.3-7.5-7.7-13-15.3-13c-7.6,0-14.1,5.5-15.4,13c-4.2,25.4-24.1,45.2-49.5,49.5c-7.5,1.3-13,7.7-13,15.4
		C459.5,717.9,465,724.4,472.5,725.6z M537.3,688.1c6.1,8.6,13.6,16.2,22.2,22.2c-8.6,6.1-16.2,13.6-22.2,22.2
		c-6.1-8.6-13.6-16.2-22.2-22.2C523.7,704.2,531.3,696.7,537.3,688.1z"/>
	<path class="st0" d="M210.4,507.9c-25.8,0-46.7,20.9-46.7,46.7c0,25.8,20.9,46.7,46.7,46.7h31.1c8.6,0,15.6,7,15.6,15.6
		c0,8.6-7,15.6-15.6,15.6h-62.3v31.1h31.1v15.6h31.1v-15.6c25.8,0,46.7-20.9,46.7-46.7c0-25.8-20.9-46.7-46.7-46.7h-31.1
		c-8.6,0-15.6-7-15.6-15.6c0-8.6,7-15.6,15.6-15.6h62.3v-31.1h-31.1v-15.6h-31.1V507.9z"/>
</g>
</svg>
