<?xml version="1.0" encoding="utf-8"?>
<!-- Generator: Adobe Illustrator 19.0.0, SVG Export Plug-In . SVG Version: 6.00 Build 0)  -->
<svg version="1.1" id="Capa_1" xmlns="http://www.w3.org/2000/svg" xmlns:xlink="http://www.w3.org/1999/xlink" x="0px" y="0px"
	 viewBox="-452 453.3 512 512" style="enable-background:new -452 453.3 512 512;" xml:space="preserve">
<style type="text/css">
	.st0{fill:#00758d;}
</style>
<g>
	<g>
		<path class="st0" d="M50,453.3h-492c-5.5,0-10,4.5-10,10v438c0,5.5,4.5,10,10,10h207.5c5.5,0,10-4.5,10-10c0-5.5-4.5-10-10-10
			H-432V545.3c0.3,0,0.7,0.1,1,0.1H40v346H20.5c-5.5,0-10,4.5-10,10c0,5.5,4.5,10,10,10H50c5.5,0,10-4.5,10-10v-438
			C60,457.8,55.5,453.3,50,453.3z M40,525.3h-471c-0.3,0-0.7,0-1,0.1v-52.1H40V525.3z"/>
	</g>
</g>
<g>
	<g>
		<path class="st0" d="M-184.9,894.3c-1.9-1.9-4.4-2.9-7.1-2.9s-5.2,1.1-7.1,2.9c-1.9,1.9-2.9,4.4-2.9,7.1s1.1,5.2,2.9,7.1
			c1.9,1.9,4.4,2.9,7.1,2.9s5.2-1.1,7.1-2.9c1.9-1.9,2.9-4.4,2.9-7.1S-183.1,896.1-184.9,894.3z"/>
	</g>
</g>
<g>
	<g>
		<path class="st0" d="M-4,489.3h-225.9c-5.5,0-10,4.5-10,10c0,5.5,4.5,10,10,10H-4c5.5,0,10-4.5,10-10C6,493.8,1.5,489.3-4,489.3z"
			/>
	</g>
</g>
<g>
	<g>
		<path class="st0" d="M-340.9,492.3c-1.9-1.9-4.4-2.9-7.1-2.9s-5.2,1.1-7.1,2.9c-1.9,1.9-2.9,4.4-2.9,7.1s1.1,5.2,2.9,7.1
			c1.9,1.9,4.4,2.9,7.1,2.9s5.2-1.1,7.1-2.9c1.9-1.9,2.9-4.4,2.9-7.1S-339.1,494.1-340.9,492.3z"/>
	</g>
</g>
<g>
	<g>
		<path class="st0" d="M-380.9,492.3c-1.9-1.9-4.4-2.9-7.1-2.9s-5.2,1.1-7.1,2.9c-1.9,1.9-2.9,4.4-2.9,7.1s1.1,5.2,2.9,7.1
			c1.9,1.9,4.4,2.9,7.1,2.9s5.2-1.1,7.1-2.9c1.9-1.9,2.9-4.4,2.9-7.1S-379.1,494.1-380.9,492.3z"/>
	</g>
</g>
<g>
	<g>
		<path class="st0" d="M-300.9,492.3c-1.9-1.9-4.4-2.9-7.1-2.9s-5.2,1.1-7.1,2.9c-1.9,1.9-2.9,4.4-2.9,7.1s1.1,5.2,2.9,7.1
			c1.9,1.9,4.4,2.9,7.1,2.9s5.2-1.1,7.1-2.9c1.9-1.9,2.9-4.4,2.9-7.1S-299.1,494.1-300.9,492.3z"/>
	</g>
</g>
<g>
	<g>
		<path class="st0" d="M-138.4,761.5c-1.4-4.4-5.1-7.5-9.7-8.2l-25.7-3.7l-11.5-23.2c0,0,0,0,0,0c-2-4.1-6.2-6.7-10.8-6.7
			c0,0,0,0,0,0c-4.6,0-8.7,2.6-10.8,6.7l-11.5,23.3l-25.7,3.7c-4.6,0.7-8.3,3.8-9.7,8.2c-1.4,4.4-0.3,9.1,3,12.3l18.6,18.1
			l-4.4,25.6c-0.8,4.5,1.1,9,4.8,11.7c2.1,1.5,4.6,2.3,7,2.3c1.9,0,3.8-0.5,5.6-1.4L-196,818l23,12.1c4.1,2.1,8.9,1.8,12.6-0.9
			c3.7-2.7,5.5-7.2,4.8-11.7l-4.4-25.6l18.6-18.1C-138.2,770.6-137,765.8-138.4,761.5z M-177,780.5c-2.8,2.8-4.1,6.7-3.4,10.6
			l2.4,13.7l-12.3-6.5c-3.5-1.8-7.7-1.8-11.2,0l-12.3,6.5l2.4-13.7c0.7-3.9-0.6-7.9-3.5-10.6l-10-9.7l13.8-2c3.9-0.6,7.3-3,9-6.6
			l6.2-12.5l6.2,12.5c1.7,3.5,5.1,6,9,6.6l13.8,2L-177,780.5z"/>
	</g>
</g>
<g>
	<g>
		<path class="st0" d="M-280,761.5c-1.4-4.4-5.1-7.5-9.7-8.2l-25.7-3.7l-11.5-23.2c0,0,0,0,0,0c-2-4.1-6.2-6.7-10.8-6.7c0,0,0,0,0,0
			c-4.6,0-8.7,2.6-10.8,6.7l-11.5,23.3l-25.7,3.7c-4.6,0.7-8.3,3.8-9.7,8.2c-1.4,4.4-0.3,9.1,3,12.3l18.6,18.1l-4.4,25.6
			c-0.8,4.5,1.1,9,4.8,11.7c2.1,1.5,4.6,2.3,7,2.3c1.9,0,3.8-0.5,5.6-1.4l22.9-12.1l23,12.1c4.1,2.1,8.9,1.8,12.6-0.9
			c3.7-2.7,5.5-7.2,4.8-11.7l-4.4-25.6l18.6-18.1C-279.7,770.6-278.5,765.8-280,761.5z M-318.5,780.5c-2.8,2.8-4.1,6.7-3.4,10.6
			l2.4,13.7l-12.3-6.5c-3.5-1.8-7.7-1.8-11.2,0l-12.3,6.5l2.4-13.7c0.7-3.9-0.6-7.9-3.5-10.6l-10-9.7l13.8-2c3.9-0.6,7.3-3,9-6.6
			l6.2-12.5l6.2,12.5c1.7,3.5,5.1,6,9,6.6l13.8,2L-318.5,780.5z"/>
	</g>
</g>
<g>
	<g>
		<path class="st0" d="M3.1,761.5c-1.4-4.4-5.1-7.5-9.7-8.2l-25.7-3.7l-11.5-23.3c-2-4.1-6.2-6.7-10.8-6.7c0,0,0,0,0,0
			c-4.6,0-8.7,2.6-10.8,6.7c0,0,0,0,0,0l-11.5,23.2l-25.7,3.7c-4.6,0.7-8.3,3.8-9.7,8.2c-1.4,4.4-0.3,9.1,3,12.3l18.6,18.1
			l-4.4,25.6c-0.8,4.5,1.1,9,4.8,11.7c3.7,2.7,8.6,3.1,12.6,0.9l23-12.1l22.9,12.1c1.8,0.9,3.7,1.4,5.6,1.4c2.5,0,4.9-0.8,7-2.3
			c3.7-2.7,5.6-7.2,4.8-11.7l-4.4-25.6l18.6-18.1C3.4,770.6,4.5,765.9,3.1,761.5z M-35.5,780.5c-2.8,2.8-4.1,6.7-3.5,10.6l2.4,13.7
			l-12.3-6.5c-1.7-0.9-3.7-1.4-5.6-1.4c-1.9,0-3.8,0.5-5.6,1.4l-12.3,6.5l2.4-13.7c0.7-3.9-0.6-7.9-3.4-10.6l-10-9.7l13.8-2
			c3.9-0.6,7.3-3,9-6.6l6.2-12.5l6.2,12.5c1.7,3.5,5.1,6,9,6.6l13.8,2L-35.5,780.5z"/>
	</g>
</g>
<g>
	<g>
		<path class="st0" d="M-4,571.3h-384c-5.5,0-10,4.5-10,10v108c0,5.5,4.5,10,10,10H-4c5.5,0,10-4.5,10-10v-108
			C6,575.8,1.5,571.3-4,571.3z M-14,679.3h-364v-44h148.1c5.5,0,10-4.5,10-10s-4.5-10-10-10H-378v-24h364V679.3z"/>
	</g>
</g>
<g>
	<g>
		<path class="st0" d="M20.5,919.2c-5.9,0-11.5,1.5-16.3,4.2c-4.9-12.8-17.3-21.9-31.8-21.9c-9.4,0-17.9,3.8-24,10
			c-6.2-6.2-14.7-10-24-10c-5,0-9.8,1.1-14,3v-59c0-18.8-15.3-34-34-34c-18.8,0-34,15.3-34,34v109.8c0,5.5,4.5,10,10,10
			s10-4.5,10-10V845.5c0-7.7,6.3-14,14-14c7.7,0,14,6.3,14,14v109.8c0,5.5,4.5,10,10,10s10-4.5,10-10v-19.8c0-7.7,6.3-14,14-14
			s14,6.3,14,14v19.8c0,5.5,4.5,10,10,10s10-4.5,10-10v-19.8c0-7.7,6.3-14,14-14s14,6.3,14,14v19.8c0,5.5,4.5,10,10,10s10-4.5,10-10
			v-2.1c0-7.7,6.3-14,14-14c7.7,0,14,6.3,14,14c0,5.5,4.5,10,10,10s10-4.5,10-10C54.6,934.5,39.3,919.2,20.5,919.2z"/>
	</g>
</g>
<g>
	<g>
		<path class="st0" d="M-177.9,618.3c-1.9-1.9-4.4-2.9-7.1-2.9s-5.2,1.1-7.1,2.9c-1.9,1.9-2.9,4.4-2.9,7.1s1.1,5.2,2.9,7.1
			s4.4,2.9,7.1,2.9s5.2-1.1,7.1-2.9c1.9-1.9,2.9-4.4,2.9-7.1S-176.1,620.1-177.9,618.3z"/>
	</g>
</g>
</svg>
